<svg width="228" height="97" viewBox="0 0 228 97" fill="none" xmlns="http://www.w3.org/2000/svg">
<rect width="227.429" height="96.6154" transform="translate(0 0.347168)" fill="#D5DFEE"/>
<g clip-path="url(#clip0_343_122)">
<g clip-path="url(#clip1_343_122)">
<g clip-path="url(#clip2_343_122)">
<path d="M60.1328 44.4393C60.1328 42.3166 60.592 40.4287 61.5105 38.7755C62.429 37.1018 63.7046 35.8058 65.3374 34.8873C66.9907 33.9484 68.8582 33.479 70.94 33.479C73.4913 33.479 75.6752 34.1525 77.4917 35.4996C79.3082 36.8467 80.5226 38.6836 81.1349 41.0104H75.3792C74.9506 40.1123 74.3383 39.4286 73.5423 38.9592C72.7668 38.4897 71.8789 38.255 70.8788 38.255C69.2664 38.255 67.9601 38.8163 66.96 39.9389C65.9599 41.0614 65.4599 42.5615 65.4599 44.4393C65.4599 46.3171 65.9599 47.8172 66.96 48.9398C67.9601 50.0623 69.2664 50.6236 70.8788 50.6236C71.8789 50.6236 72.7668 50.3889 73.5423 49.9195C74.3383 49.45 74.9506 48.7663 75.3792 47.8682H81.1349C80.5226 50.195 79.3082 52.0319 77.4917 53.379C75.6752 54.7057 73.4913 55.369 70.94 55.369C68.8582 55.369 66.9907 54.9098 65.3374 53.9913C63.7046 53.0525 62.429 51.7564 61.5105 50.1032C60.592 48.4499 60.1328 46.562 60.1328 44.4393ZM89.5762 40.9798C90.1885 40.0409 90.9539 39.3061 91.8724 38.7755C92.7908 38.2244 93.8114 37.9489 94.9339 37.9489V43.4902H93.495C92.1887 43.4902 91.2091 43.776 90.5559 44.3475C89.9027 44.8985 89.5762 45.8782 89.5762 47.2865V55.2159H84.341V38.1325H89.5762V40.9798ZM114.887 38.1325L104.172 63.329H98.5384L102.457 54.6342L95.5074 38.1325H101.355L105.304 48.8173L109.223 38.1325H114.887ZM122.015 40.5512C122.526 39.7552 123.23 39.1122 124.128 38.6224C125.026 38.1325 126.077 37.8876 127.281 37.8876C128.69 37.8876 129.965 38.2448 131.108 38.9592C132.251 39.6735 133.149 40.694 133.802 42.0207C134.476 43.3474 134.813 44.8883 134.813 46.6436C134.813 48.3989 134.476 49.9501 133.802 51.2972C133.149 52.6239 132.251 53.6545 131.108 54.3893C129.965 55.1037 128.69 55.4609 127.281 55.4609C126.097 55.4609 125.046 55.2159 124.128 54.7261C123.23 54.2362 122.526 53.6035 122.015 52.8279V63.3596H116.78V38.1325H122.015V40.5512ZM129.486 46.6436C129.486 45.3374 129.118 44.3169 128.383 43.5821C127.669 42.8269 126.781 42.4493 125.72 42.4493C124.679 42.4493 123.791 42.8269 123.056 43.5821C122.342 44.3372 121.985 45.368 121.985 46.6742C121.985 47.9805 122.342 49.0112 123.056 49.7664C123.791 50.5215 124.679 50.8992 125.72 50.8992C126.761 50.8992 127.649 50.5215 128.383 49.7664C129.118 48.9908 129.486 47.9498 129.486 46.6436ZM147.08 50.7767V55.2159H144.417C142.519 55.2159 141.039 54.7567 139.978 53.8382C138.916 52.8994 138.386 51.3788 138.386 49.2765V42.4799H136.304V38.1325H138.386V33.9689H143.621V38.1325H147.05V42.4799H143.621V49.3378C143.621 49.848 143.743 50.2154 143.988 50.4399C144.233 50.6645 144.641 50.7767 145.213 50.7767H147.08ZM157.773 55.4609C156.099 55.4609 154.589 55.1037 153.242 54.3893C151.915 53.6749 150.864 52.6545 150.089 51.3278C149.333 50.0011 148.956 48.4499 148.956 46.6742C148.956 44.9189 149.343 43.378 150.119 42.0513C150.894 40.7042 151.956 39.6735 153.303 38.9592C154.65 38.2448 156.16 37.8876 157.834 37.8876C159.508 37.8876 161.018 38.2448 162.365 38.9592C163.712 39.6735 164.774 40.7042 165.549 42.0513C166.324 43.378 166.713 44.9189 166.713 46.6742C166.713 48.4295 166.315 49.9807 165.519 51.3278C164.743 52.6545 163.671 53.6749 162.304 54.3893C160.957 55.1037 159.446 55.4609 157.773 55.4609ZM157.773 50.9298C158.773 50.9298 159.62 50.5624 160.314 49.8276C161.028 49.0929 161.386 48.0417 161.386 46.6742C161.386 45.3068 161.038 44.2556 160.345 43.5209C159.671 42.7861 158.834 42.4187 157.834 42.4187C156.814 42.4187 155.967 42.7861 155.293 43.5209C154.62 44.2352 154.283 45.2863 154.283 46.6742C154.283 48.0417 154.609 49.0929 155.263 49.8276C155.936 50.5624 156.772 50.9298 157.773 50.9298Z" fill="#2900C2"/>
</g>
</g>
</g>
<defs>
<clipPath id="clip0_343_122">
<rect width="107.429" height="30.6154" fill="white" transform="translate(60 33.3472)"/>
</clipPath>
<clipPath id="clip1_343_122">
<rect width="106.716" height="30.6154" fill="white" transform="translate(60 33.3472)"/>
</clipPath>
<clipPath id="clip2_343_122">
<rect width="106.716" height="30.6154" fill="white" transform="translate(60 33.3472)"/>
</clipPath>
</defs>
</svg>
